<?xml version="1.0" encoding="UTF-8"?>
<svg id="Layer_1" data-name="Layer 1" xmlns="http://www.w3.org/2000/svg" viewBox="0 0 447.55 410.7">
  <defs>
    <style>
      .cls-1 {
        fill: #00c220;
        stroke-width: 0px;
      }
    </style>
  </defs>
  <path class="cls-1" d="m47.7,186.75c-13.8-14.7-20.7-35.35-20.7-61.95v-58.2h30.9v57.6c0,34.8,16.4,52.2,49.2,52.2h12.3c16,0,28.6-4.4,37.8-13.2,9.2-8.8,13.8-20.9,13.8-36.3V36.6h31.2v87.6c0,17.6-3.5,32.75-10.5,45.45-7,12.7-16.75,22.4-29.25,29.1-12.5,6.7-26.85,10.05-43.05,10.05h-12.6c-25.6,0-45.3-7.35-59.1-22.05ZM90.6,29.4V0h36v29.4h-36Z"/>
  <path class="cls-1" d="m185.39,296.55c-9.8-10.69-23.9-16.05-42.3-16.05s-32.95,5.61-43.64,16.8c-10.71,11.21-16.05,26.4-16.05,45.6v10.5c0,5.81-1.46,10.05-4.35,12.75-2.91,2.7-7.65,4.05-14.25,4.05h-14.4c-6.81,0-11.76-1.89-14.86-5.7-3.1-3.79-4.64-9.79-4.64-18v-137.7H0v139.8c0,17.21,4.09,30.51,12.29,39.9,8.2,9.41,20.3,14.1,36.31,14.1h16.2c9,0,16.35-1.29,22.05-3.9,5.7-2.59,10.35-6.79,13.95-12.6,3.19,5.21,8.29,9.26,15.3,12.15,6.99,2.91,15.6,4.35,25.79,4.35,18.2,0,32.45-5.25,42.75-15.75s15.45-25.24,15.45-44.25c0-19.99-4.9-35.34-14.7-46.05Zm-22.94,66.9c-4.5,4.5-11.36,6.75-20.56,6.75s-15.8-2.34-20.39-7.05c-4.61-4.69-6.9-11.44-6.9-20.25,0-10.59,2.25-18.45,6.75-23.55s11.34-7.65,20.54-7.65,16.06,2.55,20.56,7.65,6.75,12.86,6.75,23.25c0,9.41-2.25,16.35-6.75,20.85Z"/>
  <path class="cls-1" d="m408.25,238.5v48.3c0,6-1.9,10.65-5.7,13.95-3.8,3.3-8.8,4.95-15,4.95h-56.69v-20.1c0-20.59-5.11-36.84-15.3-48.75-10.2-11.89-24.21-17.85-42-17.85-11.61,0-21.86,2.76-30.75,8.25-8.91,5.51-15.81,13.16-20.7,22.95-4.91,9.81-7.36,21.11-7.36,33.9,0,18.6,4.6,32.25,13.81,40.95,9.19,8.7,24.39,13.05,45.59,13.05h25.8c-.2,12.4-4.4,22.2-12.59,29.4-8.21,7.2-19.41,10.8-33.61,10.8h-42.3l2.7,32.4h38.71c22.2,0,40.14-6.4,53.84-19.2,13.7-12.8,21.55-30.6,23.55-53.4h57.3c15.8,0,28.4-4.44,37.81-13.35,9.39-8.89,14.09-21.24,14.09-37.05v-49.2h-31.2Zm-108.3,67.2h-24.3c-11,0-18.7-1.74-23.09-5.25-4.41-3.49-6.61-9.45-6.61-17.85,0-9.79,2.3-17.64,6.91-23.55,4.59-5.89,10.99-8.85,19.2-8.85,9,0,15.89,3.06,20.69,9.15,4.81,6.11,7.2,15.06,7.2,26.85v19.5Z"/>
  <path class="cls-1" d="m365.95,175.5v28.8h81.6v-28.8h-81.6Z"/>
</svg>